<svg width="62" height="60" viewBox="0 0 62 60" fill="none" xmlns="http://www.w3.org/2000/svg">
<path d="M45.8645 0H31.8538V60H45.8645V0Z" fill="white"/>
<path d="M20.133 59.9807C31.2522 59.9807 40.266 51.0322 40.266 39.9936C40.266 28.955 31.2522 20.0064 20.133 20.0064C9.01386 20.0064 0 28.955 0 39.9936C0 51.0322 9.01386 59.9807 20.133 59.9807Z" fill="white"/>
<path d="M20.133 48.6338C24.9397 48.6338 28.8363 44.7654 28.8363 39.9936C28.8363 35.2217 24.9397 31.3533 20.133 31.3533C15.3263 31.3533 11.4297 35.2217 11.4297 39.9936C11.4297 44.7654 15.3263 48.6338 20.133 48.6338Z" fill="#FFA03C"/>
<mask id="mask0_16_215" style="mask-type:luminance" maskUnits="userSpaceOnUse" x="31" y="0" width="15" height="60">
<path d="M45.8644 0H31.8538V59.9904H45.8644V0Z" fill="white"/>
</mask>
<g mask="url(#mask0_16_215)">
<path d="M20.133 59.9807C31.2522 59.9807 40.266 51.0322 40.266 39.9936C40.266 28.955 31.2522 20.0064 20.133 20.0064C9.01386 20.0064 0 28.955 0 39.9936C0 51.0322 9.01386 59.9807 20.133 59.9807Z" fill="#C0571F"/>
</g>
<path d="M54.9656 59.9711C58.8506 59.9711 62 56.8445 62 52.9876C62 49.1308 58.8506 46.0042 54.9656 46.0042C51.0806 46.0042 47.9311 49.1308 47.9311 52.9876C47.9311 56.8445 51.0806 59.9711 54.9656 59.9711Z" fill="#01CFC6"/>
</svg>
