<svg width="260" height="60" viewBox="0 0 260 60" fill="none" xmlns="http://www.w3.org/2000/svg">
<g clip-path="url(#clip0_17_281)">
<path d="M158.756 56.763V56.7485C158.756 55.0279 160.026 53.4969 161.923 53.4969C162.989 53.4969 163.646 53.8031 164.274 54.3281L163.821 54.8675C163.339 54.4447 162.799 54.1531 161.909 54.1531C160.508 54.1531 159.515 55.3341 159.515 56.7339V56.7485C159.515 58.2503 160.478 59.373 162.011 59.373C162.726 59.373 163.398 59.096 163.836 58.746V57.1859H161.923V56.5443H164.522V59.0522C163.938 59.5771 163.047 60.0146 161.996 60.0146C159.982 60 158.756 58.5711 158.756 56.763Z" fill="white"/>
<path d="M167.207 53.599H169.923C170.696 53.599 171.324 53.8323 171.718 54.226C172.024 54.5322 172.2 54.9696 172.2 55.4654V55.4799C172.2 56.5298 171.484 57.1422 170.492 57.3171L172.433 59.8833H171.557L169.733 57.4338H167.937V59.8833H167.222V53.599H167.207ZM169.864 56.8068C170.813 56.8068 171.484 56.3256 171.484 55.5091V55.4945C171.484 54.7217 170.886 54.2552 169.879 54.2552H167.937V56.8068H169.864Z" fill="white"/>
<path d="M177.163 53.5553H177.834L180.71 59.8979H179.951L179.206 58.2357H175.776L175.031 59.8979H174.302L177.163 53.5553ZM178.929 57.5942L177.498 54.3864L176.053 57.5942H178.929Z" fill="white"/>
<path d="M183.06 53.599H185.424C186.855 53.599 187.789 54.3572 187.789 55.5966V55.6112C187.789 56.9672 186.651 57.6671 185.308 57.6671H183.775V59.8833H183.06V53.599ZM185.322 57.0255C186.373 57.0255 187.045 56.4714 187.045 55.6403V55.6257C187.045 54.7217 186.373 54.2552 185.351 54.2552H183.775V57.0255H185.322Z" fill="white"/>
<path d="M190.183 53.599H190.898V56.3985H194.533V53.599H195.248V59.8979H194.533V57.0692H190.898V59.8979H190.183V53.599Z" fill="white"/>
<path d="M198.197 53.599H198.912V59.8979H198.197V53.599Z" fill="white"/>
<path d="M201.583 56.763V56.7485C201.583 54.9696 202.912 53.4969 204.765 53.4969C205.904 53.4969 206.59 53.9052 207.218 54.4884L206.736 55.0134C206.21 54.503 205.612 54.1531 204.751 54.1531C203.349 54.1531 202.313 55.2904 202.313 56.7339V56.7485C202.313 58.2065 203.364 59.3439 204.751 59.3439C205.612 59.3439 206.181 59.0085 206.78 58.4398L207.247 58.8918C206.59 59.5626 205.875 60 204.722 60C202.926 60 201.583 58.5711 201.583 56.763Z" fill="white"/>
<path d="M209.203 58.9793L209.641 58.4544C210.298 59.0522 210.925 59.3439 211.801 59.3439C212.648 59.3439 213.202 58.8918 213.202 58.2795V58.2649C213.202 57.6816 212.881 57.3463 211.567 57.0692C210.122 56.7485 209.451 56.2819 209.451 55.2466V55.2321C209.451 54.2406 210.327 53.5115 211.524 53.5115C212.443 53.5115 213.1 53.774 213.742 54.2843L213.334 54.8384C212.75 54.3572 212.166 54.1531 211.509 54.1531C210.692 54.1531 210.166 54.6051 210.166 55.1737V55.1883C210.166 55.7861 210.487 56.1215 211.874 56.4131C213.275 56.7193 213.932 57.2296 213.932 58.192V58.2065C213.932 59.2855 213.027 59.9854 211.786 59.9854C210.779 59.9854 209.962 59.65 209.203 58.9793Z" fill="white"/>
<path d="M219.888 58.9793L220.326 58.4544C220.982 59.0522 221.61 59.3439 222.486 59.3439C223.333 59.3439 223.887 58.8918 223.887 58.2795V58.2649C223.887 57.6816 223.566 57.3463 222.252 57.0692C220.807 56.7485 220.136 56.2819 220.136 55.2466V55.2321C220.136 54.2406 221.012 53.5115 222.209 53.5115C223.128 53.5115 223.785 53.774 224.427 54.2843L224.019 54.8384C223.435 54.3572 222.851 54.1531 222.194 54.1531C221.377 54.1531 220.851 54.6051 220.851 55.1737V55.1883C220.851 55.7861 221.172 56.1215 222.559 56.4131C223.96 56.7193 224.617 57.2296 224.617 58.192V58.2065C224.617 59.2855 223.712 59.9854 222.471 59.9854C221.464 59.9854 220.647 59.65 219.888 58.9793Z" fill="white"/>
<path d="M228.704 54.2552H226.588V53.599H231.536V54.2552H229.419V59.8979H228.704V54.2552Z" fill="white"/>
<path d="M233.886 57.2588V53.599H234.601V57.2151C234.601 58.5711 235.317 59.3439 236.528 59.3439C237.696 59.3439 238.426 58.644 238.426 57.2588V53.599H239.141V57.2005C239.141 59.0377 238.09 59.9854 236.514 59.9854C234.952 60 233.886 59.0377 233.886 57.2588Z" fill="white"/>
<path d="M241.929 53.599H244.119C246.104 53.599 247.476 54.955 247.476 56.7339V56.7485C247.476 58.5273 246.104 59.8979 244.119 59.8979H241.929V53.599ZM244.119 59.2418C245.71 59.2418 246.731 58.1628 246.731 56.763V56.7485C246.731 55.3487 245.71 54.2552 244.119 54.2552H242.644V59.2418H244.119Z" fill="white"/>
<path d="M250.147 53.599H250.862V59.8979H250.147V53.599Z" fill="white"/>
<path d="M253.534 56.763V56.7485C253.534 55.0134 254.833 53.4969 256.759 53.4969C258.686 53.4969 259.971 54.9988 259.971 56.7339V56.7485C259.971 58.4836 258.672 60 256.745 60C254.818 60 253.534 58.4982 253.534 56.763ZM259.226 56.763V56.7485C259.226 55.3196 258.175 54.1531 256.745 54.1531C255.314 54.1531 254.278 55.305 254.278 56.7339V56.7485C254.278 58.1774 255.329 59.3439 256.759 59.3439C258.19 59.3439 259.226 58.192 259.226 56.763Z" fill="white"/>
<path d="M6.5978 52.0243C2.90478 52.0243 0 55.2029 0 59.2564H1.24074C1.24074 55.8882 3.59084 53.2637 6.5978 53.2637C8.21806 53.2637 9.72154 54.3135 10.6119 56.0632L11.7213 55.5091C10.6265 53.322 8.69975 52.0243 6.5978 52.0243Z" fill="#FF5757"/>
<path d="M109.36 52.0243C107.258 52.0243 105.331 53.322 104.236 55.5091L104.747 55.7716L104.222 55.5383C103.2 57.5358 101.244 58.7752 99.0984 58.7752C96.938 58.7752 94.9674 57.5213 93.9457 55.5091L92.8363 56.0632C94.0624 58.4982 96.4563 60.0146 99.0984 60.0146C101.711 60.0146 104.105 58.5128 105.317 56.1361L105.346 56.0778C106.236 54.3281 107.74 53.2782 109.36 53.2782C112.367 53.2782 114.717 55.9174 114.717 59.271H115.958C115.972 55.2029 113.068 52.0243 109.36 52.0243Z" fill="#FF5757"/>
<path d="M47.7027 52.0243C45.6153 52.0243 43.6593 53.3657 42.5646 55.5383C41.5428 57.5358 39.5868 58.7752 37.4265 58.7752C35.2661 58.7752 33.2955 57.5213 32.2883 55.5091L32.2738 55.4945C31.1644 53.322 29.2522 52.0243 27.1502 52.0243C25.0629 52.0243 23.0923 53.3657 22.0121 55.5383C20.9903 57.5358 19.0344 58.7752 16.8886 58.7752C14.7283 58.7752 12.7577 57.5213 11.7359 55.5091L10.6265 56.0632C11.8527 58.4982 14.2466 60.0146 16.8886 60.0146C19.4869 60.0146 21.8516 58.5419 23.0923 56.1652C23.9827 54.3426 25.5008 53.2637 27.1648 53.2637C28.7559 53.2637 30.2302 54.2697 31.1206 55.9611V56.0486L31.2374 56.1652C32.4781 58.5419 34.8428 60.0146 37.4411 60.0146C40.0539 60.0146 42.4478 58.5127 43.6739 56.1069L43.6885 56.0632C44.5789 54.3135 46.0678 53.2637 47.7027 53.2637C49.3229 53.2637 50.8264 54.3135 51.7168 56.0632L52.8262 55.5091C51.7314 53.322 49.8046 52.0243 47.7027 52.0243Z" fill="#FF5757"/>
<path d="M68.2551 52.0243C66.1386 52.0243 64.2264 53.3366 63.117 55.5383C62.0952 57.5358 60.1392 58.7752 57.9789 58.7752C55.8186 58.7752 53.848 57.5213 52.8262 55.5091L51.7168 56.0632C52.943 58.4982 55.3369 60.0146 57.9789 60.0146C60.5771 60.0146 62.9418 58.5419 64.1826 56.1652C64.1826 56.1507 64.1972 56.1507 64.1972 56.1361C64.1972 56.1215 64.2118 56.1215 64.2118 56.1069L64.2264 56.0923C65.1168 54.3281 66.6203 53.2782 68.2551 53.2782C69.8754 53.2782 71.3789 54.3281 72.2693 56.0778L73.3786 55.5237C72.2839 53.322 70.3571 52.0243 68.2551 52.0243Z" fill="#FF5757"/>
<path d="M88.8076 52.0243C86.691 52.0243 84.7788 53.3366 83.6694 55.5383C82.6477 57.5358 80.6917 58.7752 78.5313 58.7752C76.371 58.7752 74.4004 57.5213 73.3786 55.5091L72.2693 56.0632C73.4954 58.4982 75.8893 60.0146 78.5313 60.0146C81.1296 60.0146 83.4943 58.5419 84.735 56.1652C84.735 56.1507 84.7496 56.1507 84.7496 56.1361C84.7496 56.1215 84.7642 56.1215 84.7642 56.1069L84.7788 56.0923C85.6692 54.3281 87.1727 53.2637 88.8076 53.2637C90.4278 53.2637 91.9313 54.3135 92.8217 56.0632L93.9311 55.5091C92.8363 53.322 90.9095 52.0243 88.8076 52.0243Z" fill="#FF5757"/>
<path d="M110.572 10.7314C113.482 10.7314 115.841 8.37481 115.841 5.46777C115.841 2.56073 113.482 0.204102 110.572 0.204102C107.661 0.204102 105.302 2.56073 105.302 5.46777C105.302 8.37481 107.661 10.7314 110.572 10.7314Z" fill="#01CFC6"/>
<path d="M15.0932 44.9672C23.4209 44.9672 30.1718 38.2237 30.1718 29.9052C30.1718 21.5867 23.4209 14.8433 15.0932 14.8433C6.76552 14.8433 0.0145969 21.5867 0.0145969 29.9052C0.0145969 38.2237 6.76552 44.9672 15.0932 44.9672Z" fill="#FFA03C"/>
<path d="M54.5778 14.5954C67.3647 14.5954 71.2183 24.5103 69.1017 33.565H49.6149C50.7972 36.8457 54.826 38.158 59.1175 38.158C62.4747 38.158 65.2044 37.6622 67.6858 36.729V44.5443C64.8978 45.5358 61.3508 46.2211 56.636 46.2211C46.8269 46.2211 38.9445 40.6367 38.9445 30.4155C38.9445 18.7509 48.0676 14.5954 54.5778 14.5954ZM54.826 22.2211C51.9066 22.2211 49.4835 24.1458 49.4835 27.2369H59.4824C59.7889 25.808 59.0445 22.2211 54.826 22.2211Z" fill="white"/>
<path d="M87.1727 14.5954C91.5226 14.5954 95.2448 15.6452 98.4123 17.1324V25.5018C95.7995 23.7084 91.4058 22.3378 87.9171 22.3378C86.618 22.3378 85.0561 22.5857 85.0561 23.825C85.0561 27.9806 100.689 25.5601 100.689 36.5978C100.689 44.034 93.9894 46.2066 86.472 46.2066C81.8156 46.2066 77.6555 45.2734 74.488 43.4799V35.1106C77.7723 37.2831 82.3703 38.2746 85.9028 38.2746C88.5156 38.2746 89.8147 37.8372 89.8147 36.7874C89.8147 32.8797 74.1814 34.8044 74.1814 24.0729C74.196 16.8262 80.5311 14.5954 87.1727 14.5954Z" fill="white"/>
<path d="M115.797 15.514H105.244V45.2734H115.797V15.514Z" fill="white"/>
<path d="M134.788 14.5954C140.13 14.5954 143.415 17.0741 144.903 19.5528V15.5285H154.216V44.034C154.216 55.9319 145.589 59.8396 136.598 59.8396C131.825 59.8396 127.343 58.7898 123.753 57.0547V48.0729C126.978 50.0559 131.139 51.1786 135.167 51.1786C139.94 51.1786 143.663 49.7497 143.663 44.6756V42.8676C141.867 44.7339 138.948 46.2211 134.788 46.2211C124.789 46.2211 120.395 38.0996 120.395 30.4155C120.381 22.7169 124.789 14.5954 134.788 14.5954ZM137.634 23.271C133.168 23.271 131.241 26.9307 131.241 30.401C131.241 33.8712 133.168 37.531 137.634 37.531C140.554 37.531 142.728 35.7375 143.648 33.8129V26.9891C142.728 25.0644 140.554 23.271 137.634 23.271Z" fill="white"/>
<path d="M177.571 14.5954C185.76 14.5954 189.482 20.1069 189.482 26.8141V45.288H178.929V28.2284C178.929 25.0644 177.002 23.5771 174.404 23.5771C172.039 23.5771 170.244 25.0061 169.309 26.1871V45.288H158.756V15.514H168.069V18.9259C170.55 16.2722 173.586 14.5954 177.571 14.5954Z" fill="white"/>
<path d="M209.67 14.5954C222.457 14.5954 226.31 24.5103 224.194 33.565H204.707C205.889 36.8457 209.918 38.158 214.21 38.158C217.567 38.158 220.296 37.6622 222.778 36.729V44.5443C219.99 45.5358 216.443 46.2211 211.728 46.2211C201.919 46.2211 194.037 40.6367 194.037 30.4155C194.037 18.7509 203.16 14.5954 209.67 14.5954ZM209.918 22.2211C206.999 22.2211 204.576 24.1458 204.576 27.2369H214.574C214.881 25.808 214.137 22.2211 209.918 22.2211Z" fill="white"/>
<path d="M244.921 14.5954C257.708 14.5954 261.562 24.5103 259.445 33.565H239.958C241.141 36.8457 245.17 38.158 249.461 38.158C252.818 38.158 255.548 37.6622 258.029 36.729V44.5443C255.241 45.5358 251.694 46.2211 246.98 46.2211C237.17 46.2211 229.288 40.6367 229.288 30.4155C229.288 18.7509 238.411 14.5954 244.921 14.5954ZM245.17 22.2211C242.25 22.2211 239.827 24.1458 239.827 27.2369H249.826C250.147 25.808 249.388 22.2211 245.17 22.2211Z" fill="white"/>
<path d="M34.3757 0H23.8659V45.2734H34.3757V0Z" fill="white"/>
<path d="M15.0932 36.4228C18.6968 36.4228 21.618 33.5048 21.618 29.9052C21.618 26.3056 18.6968 23.3876 15.0932 23.3876C11.4896 23.3876 8.56838 26.3056 8.56838 29.9052C8.56838 33.5048 11.4896 36.4228 15.0932 36.4228Z" fill="white"/>
<mask id="mask0_17_281" style="mask-type:luminance" maskUnits="userSpaceOnUse" x="23" y="0" width="12" height="46">
<path d="M34.3757 0H23.8659V45.2734H34.3757V0Z" fill="white"/>
</mask>
<g mask="url(#mask0_17_281)">
<path d="M15.0932 44.9672C23.4209 44.9672 30.1718 38.2237 30.1718 29.9052C30.1718 21.5867 23.4209 14.8433 15.0932 14.8433C6.76552 14.8433 0.0145969 21.5867 0.0145969 29.9052C0.0145969 38.2237 6.76552 44.9672 15.0932 44.9672Z" fill="#C0571F"/>
</g>
</g>
<defs>
<clipPath id="clip0_17_281">
<rect width="260" height="60" fill="white"/>
</clipPath>
</defs>
</svg>
